# xmcd
#
# Track frame offsets:
#	150
#	13725
#	31405
#	47027
#	65070
#	79202
#	95512
#	107062
#	120460
#	139300
#	151037
#	163637
#	175447
#	188612
#	203957
#	215100
#	231700
#	248607
#	265765
#	281232
#
# Disc length: 3963 seconds
#
# Revision: 3
# Processed by: cddbd v1.5.2PL0 Copyright (c) Steve Scherf et al.
# Submitted via: EasyCDDAExtractor 2010.6.0.0
#
DISCID=280f7914
DTITLE=JOÃO MINEIRO and MARCIANO - RAIZES SERTANEJAS [1998]
DYEAR=1998
DGENRE=SERTANEJO
TTITLE0=ALINE (BY DJ GILMAR SINISTRO)
TTITLE1=ROMARIA (BY DJ GILMAR SINISTRO)
TTITLE2=SE EU PUDESSE CONVERSAR COM DEUS (BY DJ GILMAR SINISTRO)
TTITLE3=MILAGRE DA FLECHA (BY DJ GILMAR SINISTRO)
TTITLE4=AINDA ONTEM CHOREI DE SAUDADE (BY DJ GILMAR SINISTRO)
TTITLE5=SE EU NÃO PUDER TE ESQUECER (BY DJ GILMAR SINISTRO)
TTITLE6=WHISKY COM GELO (BY DJ GILMAR SINISTRO)
TTITLE7=CRISES DE AMOR (BY DJ GILMAR SINISTRO)
TTITLE8=DISTANTE DOS OLHOS (BY DJ GILMAR SINISTRO)
TTITLE9=NAS CURVAS DO SEU CORPO CAPOTEI MEU CORAÇÃO (BY DJ GILMAR SINISTRO)
TTITLE10=DAMA DA NOITE (BY DJ GILMAR SINISTRO)
TTITLE11=A MULHER QUE AMO (BY DJ GILMAR SINISTRO)
TTITLE12=ESTA NOITE COMO LEMBRANÇA (BY DJ GILMAR SINISTRO)
TTITLE13=TUDO PASSARÁ (BY DJ GILMAR SINISTRO)
TTITLE14=CANÇÃO DO NOSSO ADEUS (BY DJ GILMAR SINISTRO)
TTITLE15=ESSE MEU CORAÇÃO SEM JUIZO (BY DJ GILMAR SINISTRO)
TTITLE16=EU DARIA A MINHA VIDA (BY DJ GILMAR SINISTRO)
TTITLE17=MAIS UMA NOITE VOU DORMIR SEM MEU BEM (BY DJ GILMAR SINISTRO)
TTITLE18=AS PAREDES AZUIS (BY DJ GILMAR SINISTRO)
TTITLE19=NÃO SE BATE EM QUEM SE AMA (BY DJ GILMAR SINISTRO)
EXTD=YEAR: 1998
EXTT0=
EXTT1=
EXTT2=
EXTT3=
EXTT4=
EXTT5=
EXTT6=
EXTT7=
EXTT8=
EXTT9=
EXTT10=
EXTT11=
EXTT12=
EXTT13=
EXTT14=
EXTT15=
EXTT16=
EXTT17=
EXTT18=
EXTT19=
PLAYORDER=
